PathFileType	4	(X/Y/Z)	E:/New_biomech_experiments/MICROGRAVITY MOCAP/Session 2024-06-22/Neeraj_FullAction_pp_22_06_24_t02 (1).trc																																																																											
DataRate	CameraRate	NumFrames	NumMarkers	Units	OrigDataRate	OrigDataStartFrame	OrigNumFrames																																																																							
120	120	21	19	m	120	5685	7579																																																																							
Frame#	Time	RSHO			RBAK			LBHD			RUPA			PRSHO			RELB			CLAV			RFHD			LFHD			C7			RWRB			RFRM			RWRA			MRELB			DIA			STRN			ARSHO			RBHD			T10																						
		X1	Y1	Z1	X2	Y2	Z2	X3	Y3	Z3	X4	Y4	Z4	X5	Y5	Z5	X6	Y6	Z6	X7	Y7	Z7	X8	Y8	Z8	X9	Y9	Z9	X10	Y10	Z10	X11	Y11	Z11	X12	Y12	Z12	X13	Y13	Z13	X14	Y14	Z14	X15	Y15	Z15	X16	Y16	Z16	X17	Y17	Z17	X18	Y18	Z18	X19	Y19	Z19																				y19
																																																																														
5685	47.367	-0.06476	0.09023	0.07306	-0.11119	-0.1196	0.04309	-0.03835	0.21692	-0.10856	-0.03344	0.15856	0.2183	-0.109	-0.0068	0.09737	-0.03457	0.24255	0.32599	0.09955	-0.00336	-0.05444	0.05811	0.31151	0.03926	0.07735	0.3255	-0.06195	-0.10306	0.0276	-0.05888	-0.03387	0.4085	0.57369	-0.01687	0.33527	0.42652	0.06363	0.41213	0.55416	0.05215	0.18019	0.37829	0.083	-0.30661	0.13897	0.13959	-0.16407	-0.02523	0.05551	0.04738	0.07576	-0.06519	0.21561	-0.00692	-0.10731	-1.55888	-0.02628																				-1.55888
5686	47.375	-0.06463	0.09029	0.07297	-0.10679	-0.12428	0.0432	-0.03832	0.21697	-0.10867	-0.03307	0.15839	0.21821	-0.10896	-0.00741	0.09687	-0.03464	0.24247	0.32593	0.09961	-0.00334	-0.05455	0.05817	0.31152	0.03916	0.07767	0.3257	-0.06182	-0.10299	0.02763	-0.05897	-0.03414	0.40834	0.5737	-0.01743	0.33578	0.42751	0.06343	0.41198	0.55423	0.05211	0.18011	0.37828	0.08299	-0.30664	0.13887	0.13963	-0.16407	-0.02535	0.05558	0.04738	0.07568	-0.0651	0.21561	-0.00704	-0.10725	-1.55897	-0.02637																				-1.55897
5687	47.383	-0.06458	0.0903	0.07285	-0.10515	-0.12518	0.04379	-0.03826	0.21695	-0.10876	-0.0334	0.15852	0.21815	-0.10888	-0.00742	0.09673	-0.03472	0.24238	0.3259	0.09968	-0.00334	-0.05464	0.0582	0.31153	0.03907	0.07772	0.32573	-0.06191	-0.10295	0.02762	-0.05908	-0.03434	0.4082	0.57377	-0.01761	0.33567	0.42753	0.06324	0.41187	0.55428	0.05202	0.18003	0.3783	0.08305	-0.30661	0.13875	0.13966	-0.16407	-0.02543	0.05568	0.04743	0.07556	-0.0657	0.21672	-0.00757	-0.10722	-1.55908	-0.02644																				-1.55908
5688	47.392	-0.06449	0.09031	0.07277	-0.10669	-0.1242	0.04292	-0.03821	0.21692	-0.10886	-0.03295	0.15872	0.21802	-0.10884	-0.00739	0.09659	-0.03488	0.24229	0.32589	0.09973	-0.00334	-0.05476	0.05824	0.31153	0.03898	0.07776	0.32576	-0.06201	-0.1029	0.02764	-0.05917	-0.03459	0.40803	0.57381	-0.01777	0.33555	0.42753	0.06285	0.4115	0.55415	0.05197	0.17995	0.37827	0.08308	-0.3066	0.13862	0.1397	-0.16406	-0.02557	0.05578	0.04747	0.07549	-0.06552	0.21666	-0.00765	-0.1073	-1.55917	-0.02662																				-1.55917
5689	47.4	-0.06457	0.09019	0.07265	-0.1066	-0.12421	0.04283	-0.03817	0.21696	-0.10894	-0.03344	0.15841	0.21801	-0.10881	-0.00744	0.09645	-0.03499	0.24216	0.32587	0.0998	-0.00332	-0.05485	0.05827	0.31153	0.03889	0.07776	0.32576	-0.06212	-0.10285	0.02766	-0.0593	-0.03485	0.40779	0.57381	-0.01794	0.3354	0.42758	0.06267	0.41141	0.55421	0.05239	0.17928	0.37839	0.08312	-0.30658	0.13851	0.13974	-0.16407	-0.02566	0.05574	0.04746	0.07538	-0.06547	0.21664	-0.00775	-0.10748	-1.5593	-0.02692																				-1.5593
5690	47.408	-0.06446	0.09026	0.07252	-0.10654	-0.12419	0.04267	-0.03813	0.21693	-0.10906	-0.03342	0.15835	0.21795	-0.10876	-0.00744	0.09628	-0.03509	0.24207	0.32584	0.09986	-0.00331	-0.05495	0.0583	0.31152	0.03877	0.07783	0.3258	-0.06219	-0.10276	0.02768	-0.05939	-0.03509	0.40754	0.57381	-0.01811	0.33529	0.42756	0.06242	0.41129	0.55427	0.05237	0.1792	0.37834	0.08317	-0.30657	0.13841	0.13981	-0.16407	-0.02576	0.05583	0.04749	0.07532	-0.06538	0.21662	-0.00786	-0.10727	-1.55939	-0.02687																				-1.55939
5691	47.417	-0.06444	0.09022	0.07243	-0.10638	-0.12422	0.04255	-0.0381	0.21694	-0.10915	-0.03353	0.15828	0.21788	-0.10877	-0.00749	0.09614	-0.03522	0.24198	0.32579	0.09989	-0.00331	-0.05504	0.05837	0.31157	0.03868	0.07791	0.3258	-0.06229	-0.10268	0.02764	-0.05948	-0.03528	0.40733	0.57386	-0.01828	0.33516	0.42757	0.06221	0.41119	0.55437	0.0523	0.17914	0.3783	0.08323	-0.30657	0.13829	0.13988	-0.16407	-0.02588	0.05583	0.04747	0.07522	-0.06529	0.21662	-0.00795	-0.10651	-1.55948	-0.02628																				-1.55948
5692	47.425	-0.06445	0.09019	0.0723	-0.1064	-0.12422	0.04244	-0.03804	0.21691	-0.10923	-0.0335	0.15823	0.21774	-0.10875	-0.0075	0.09605	-0.03525	0.24193	0.32576	0.09993	-0.0033	-0.05513	0.05841	0.31156	0.03857	0.07813	0.32582	-0.0622	-0.10263	0.0276	-0.05958	-0.03549	0.40711	0.57391	-0.01843	0.33507	0.42755	0.06195	0.41104	0.55442	0.05224	0.1791	0.37824	0.08325	-0.30658	0.13817	0.13985	-0.16431	-0.02617	0.05582	0.04748	0.07516	-0.06525	0.21662	-0.00807	-0.10724	-1.55958	-0.02711																				-1.55958
5693	47.433	-0.06441	0.09021	0.07218	-0.11064	-0.11971	0.04209	-0.038	0.21693	-0.10934	-0.03361	0.15821	0.21766	-0.10875	-0.00753	0.09585	-0.03536	0.24189	0.32563	0.09996	-0.0033	-0.05523	0.05846	0.31156	0.03845	0.07801	0.32578	-0.06254	-0.1026	0.02758	-0.0597	-0.03574	0.40693	0.57388	-0.01856	0.33497	0.42752	0.06174	0.41089	0.55452	0.05211	0.17901	0.37818	0.08331	-0.30654	0.13804	0.13988	-0.16426	-0.02626	0.05584	0.04747	0.07506	-0.0652	0.21662	-0.00818	-0.1102	-1.5597	-0.03007																				-1.5597
5694	47.442	-0.06443	0.09018	0.07207	-0.11062	-0.11974	0.04192	-0.0379	0.2169	-0.10943	-0.03356	0.15821	0.21759	-0.10878	-0.00689	0.09615	-0.03542	0.2418	0.32559	0.1	-0.00329	-0.05526	0.05854	0.31161	0.03834	0.07807	0.32578	-0.06264	-0.10259	0.02759	-0.05983	-0.03596	0.40673	0.57389	-0.01866	0.33489	0.42752	0.06148	0.41073	0.5546	0.05157	0.17958	0.37807	0.08332	-0.30653	0.13796	0.13996	-0.16425	-0.02637	0.05584	0.04747	0.07498	-0.06525	0.21666	-0.00831	-0.1123	-1.55983	-0.03223																				-1.55983
5695	47.45	-0.06441	0.09021	0.07197	-0.10644	-0.12422	0.04196	-0.03796	0.21722	-0.1095	-0.03358	0.15814	0.2175	-0.10877	-0.00754	0.0956	-0.0355	0.24178	0.32551	0.10001	-0.00328	-0.05535	0.05862	0.31158	0.03824	0.07834	0.32578	-0.06253	-0.10257	0.02761	-0.05994	-0.03622	0.40651	0.57393	-0.01885	0.33476	0.42751	0.06123	0.41058	0.55469	0.05187	0.17884	0.37806	0.08336	-0.30653	0.13787	0.13998	-0.16423	-0.02646	0.05584	0.04746	0.07486	-0.06524	0.21671	-0.0084	-0.11056	-1.55994	-0.03074																				-1.55994
5696	47.458	-0.06444	0.0902	0.07183	-0.10487	-0.1252	0.04253	-0.03776	0.21694	-0.10969	-0.03356	0.15812	0.21741	-0.10878	-0.00754	0.09542	-0.0356	0.24168	0.32547	0.10004	-0.00327	-0.05545	0.05881	0.31168	0.03825	0.07819	0.32576	-0.06285	-0.10256	0.0276	-0.06008	-0.03647	0.40636	0.57394	-0.019	0.33465	0.4275	0.06101	0.41042	0.55473	0.05173	0.17876	0.378	0.08335	-0.30653	0.13776	0.14002	-0.16423	-0.02657	0.05582	0.04744	0.07478	-0.06516	0.21671	-0.00848	-0.10724	-1.56008	-0.02774																				-1.56008
5697	47.467	-0.06448	0.09017	0.0717	-0.11055	-0.11974	0.04153	-0.0378	0.21724	-0.10974	-0.03366	0.15809	0.21732	-0.10879	-0.00756	0.09523	-0.0357	0.24163	0.32543	0.10005	-0.00328	-0.05557	0.05876	0.31156	0.03803	0.07827	0.32573	-0.06297	-0.10254	0.0276	-0.0602	-0.03672	0.40615	0.57394	-0.01917	0.33454	0.4275	0.06079	0.41022	0.55479	0.05124	0.17937	0.37793	0.08339	-0.30652	0.13766	0.14004	-0.16424	-0.02665	0.05585	0.04748	0.07471	-0.06508	0.21673	-0.00857	-0.10659	-1.5602	-0.02732																				-1.5602
5698	47.475	-0.06446	0.09018	0.07158	-0.11051	-0.11978	0.04139	-0.03792	0.21712	-0.11023	-0.03368	0.15801	0.21725	-0.10881	-0.00756	0.09506	-0.03581	0.24151	0.32542	0.10005	-0.00324	-0.05563	0.0588	0.31153	0.03794	0.07836	0.32572	-0.06302	-0.1025	0.02761	-0.06038	-0.03692	0.40593	0.57403	-0.0193	0.33438	0.42754	0.06061	0.41002	0.5549	0.05066	0.17893	0.37768	0.08338	-0.30651	0.13755	0.14005	-0.16421	-0.02674	0.05582	0.04748	0.07461	-0.06512	0.21675	-0.00871	-0.10718	-1.56038	-0.02811																				-1.56038
5699	47.483	-0.06449	0.09014	0.07146	-0.11054	-0.11979	0.04122	-0.03792	0.2174	-0.11034	-0.03392	0.15795	0.21719	-0.10885	-0.00758	0.09494	-0.036	0.24136	0.3254	0.10007	-0.00323	-0.05575	0.05889	0.31151	0.03788	0.07843	0.32574	-0.06311	-0.1025	0.02761	-0.06057	-0.03713	0.40569	0.57407	-0.01953	0.33422	0.42759	0.06045	0.40979	0.55498	0.05056	0.17882	0.37761	0.08321	-0.30688	0.13716	0.14007	-0.1642	-0.02686	0.05585	0.04752	0.07454	-0.06512	0.21678	-0.00884	-0.10716	-1.56057	-0.02829																				-1.56057
5700	47.492	-0.06452	0.09015	0.07136	-0.11051	-0.11979	0.04113	-0.03755	0.2173	-0.11016	-0.03383	0.15794	0.21714	-0.10887	-0.0076	0.09475	-0.03611	0.24127	0.32536	0.10007	-0.00323	-0.0558	0.05889	0.31151	0.03778	0.07849	0.32571	-0.06321	-0.10246	0.02761	-0.06078	-0.03733	0.40543	0.5742	-0.01944	0.33373	0.42732	0.06029	0.40957	0.55507	0.05052	0.17875	0.37757	0.08341	-0.30646	0.13734	0.14009	-0.16419	-0.02696	0.05581	0.04752	0.0744	-0.06506	0.21679	-0.00894	-0.10713	-1.56078	-0.02848																				-1.56078
5701	47.5	-0.06458	0.09011	0.07124	-0.10652	-0.12433	0.04104	-0.0375	0.21731	-0.1103	-0.03329	0.15723	0.21638	-0.1089	-0.00765	0.09458	-0.03618	0.24115	0.32533	0.10006	-0.00324	-0.05592	0.05898	0.31149	0.03769	0.07872	0.32568	-0.06315	-0.10248	0.02764	-0.06094	-0.03755	0.40509	0.57429	-0.01984	0.33388	0.42771	0.0601	0.4093	0.55517	0.05041	0.17861	0.37751	0.08327	-0.30685	0.13695	0.14009	-0.16417	-0.02708	0.05574	0.0475	0.07433	-0.065	0.21675	-0.00905	-0.10712	-1.56094	-0.02865																				-1.56094
5702	47.508	-0.06464	0.0901	0.07112	-0.11045	-0.11989	0.04082	-0.03742	0.2173	-0.11041	-0.03397	0.15782	0.21697	-0.10899	-0.00767	0.09441	-0.03629	0.24103	0.3253	0.10002	-0.00325	-0.05607	0.05899	0.31145	0.03759	0.0786	0.32568	-0.06341	-0.10247	0.02765	-0.06114	-0.03775	0.40474	0.57436	-0.01996	0.33371	0.42773	0.0599	0.40904	0.55528	0.05032	0.1785	0.37747	0.08323	-0.30685	0.13684	0.14009	-0.16417	-0.02719	0.05579	0.04754	0.07424	-0.06499	0.21676	-0.0092	-0.10708	-1.56114	-0.02883																				-1.56114
5703	47.517	-0.0647	0.09007	0.07098	-0.1067	-0.12434	0.0406	-0.03762	0.2174	-0.11088	-0.03346	0.15712	0.21623	-0.10903	-0.00772	0.09425	-0.03639	0.24092	0.32521	0.10001	-0.00327	-0.05619	0.05902	0.31143	0.03748	0.07866	0.32566	-0.0635	-0.10247	0.02768	-0.06132	-0.03794	0.40441	0.57442	-0.0201	0.33353	0.42777	0.05972	0.40875	0.55541	0.0502	0.17833	0.37748	0.08322	-0.30686	0.13674	0.14011	-0.16417	-0.02731	0.05575	0.04747	0.07412	-0.06495	0.21679	-0.00934	-0.10701	-1.56132	-0.02901																				-1.56132
5704	47.525	-0.06467	0.09012	0.07088	-0.11047	-0.11995	0.04047	-0.03725	0.21732	-0.11071	-0.03361	0.15706	0.21608	-0.1091	-0.00774	0.09406	-0.03646	0.24082	0.32523	0.10001	-0.00324	-0.05631	0.05918	0.31154	0.03746	0.07893	0.32564	-0.06339	-0.10245	0.02766	-0.06147	-0.03808	0.40413	0.57451	-0.02021	0.33334	0.42783	0.05957	0.40848	0.55552	0.05009	0.17814	0.37742	0.08323	-0.30685	0.13662	0.14009	-0.1642	-0.02741	0.0557	0.04747	0.07403	-0.0649	0.21679	-0.00949	-0.10694	-1.56147	-0.02921																				-1.56147
5705	47.533	-0.06468	0.09012	0.07076	-0.11046	-0.11997	0.04028	-0.03722	0.21732	-0.11084	-0.03352	0.157	0.21614	-0.10915	-0.00774	0.0939	-0.03653	0.24067	0.3252	0.1	-0.00324	-0.05642	0.05907	0.31139	0.03727	0.0788	0.32561	-0.06368	-0.10247	0.02766	-0.06165	-0.03825	0.40383	0.57458	-0.02035	0.33313	0.42792	0.05945	0.40818	0.55565	0.04998	0.17798	0.37742	0.08321	-0.30686	0.13652	0.14009	-0.16415	-0.02755	0.05571	0.04744	0.07393	-0.06495	0.21684	-0.00966	-0.1069	-1.56165	-0.02939																				-1.56165
